<svg height="495pt" viewBox="0 0 495 495.99956" width="495pt" xmlns="http://www.w3.org/2000/svg"><path d="m248.453125 248v240l240-480-480 240zm0 0" fill="#78b9eb"/><path d="m494.132812 2.320312c-2.457031-2.4375-6.199218-3.019531-9.28125-1.441406l-480 240c-3.28125 1.679688-4.988281 5.386719-4.132812 8.972656.851562 3.585938 4.046875 6.125 7.734375 6.148438h232v232c.011719 3.699219 2.558594 6.910156 6.160156 7.757812.601563.160157 1.21875.242188 1.839844.242188 3.011719-.007812 5.761719-1.710938 7.121094-4.402344l240-480c1.574219-3.078125.996093-6.820312-1.441407-9.277344zm-237.679687 451.757813v-206.078125c0-4.417969-3.582031-8-8-8h-206.082031l428.160156-214.082031zm0 0" fill="#1a6fb0"/></svg>